<?xml version="1.0" standalone="no"?>
<!DOCTYPE svg PUBLIC "-//W3C//DTD SVG 20010904//EN"
 "http://www.w3.org/TR/2001/REC-SVG-20010904/DTD/svg10.dtd">
<svg version="1.0" xmlns="http://www.w3.org/2000/svg"
 width="512.000000pt" height="512.000000pt" viewBox="0 0 512.000000 512.000000"
 preserveAspectRatio="xMidYMid meet">
<metadata>
Created by potrace 1.11, written by Peter Selinger 2001-2013
</metadata>
<g transform="translate(0.000000,512.000000) scale(0.100000,-0.100000)"
fill="#000000" stroke="none">
<path d="M2357 4274 c-1 -2 -25 -5 -52 -8 -28 -3 -65 -10 -83 -15 -17 -5 -32
-8 -32 -6 0 2 -17 -3 -37 -11 -20 -9 -46 -18 -57 -20 -51 -9 -237 -113 -305
-169 -81 -67 -211 -211 -211 -234 0 -6 -4 -11 -9 -11 -5 0 -14 -13 -21 -30 -7
-16 -16 -30 -21 -30 -5 0 -8 -3 -7 -7 0 -5 -14 -39 -33 -78 -18 -38 -34 -74
-35 -80 -1 -5 -3 -12 -4 -15 -1 -3 -3 -12 -6 -20 -2 -8 -10 -38 -18 -67 -8
-29 -18 -69 -22 -90 -10 -54 -12 -323 -2 -329 4 -3 8 -17 8 -32 0 -15 8 -57
19 -92 10 -36 20 -71 22 -79 8 -30 88 -188 113 -224 14 -21 26 -42 26 -47 0
-4 4 -10 8 -12 9 -3 121 -162 159 -226 36 -59 68 -131 97 -217 37 -108 38
-113 20 -147 -10 -20 -17 -66 -19 -132 -2 -55 -6 -113 -9 -129 -2 -15 0 -42 5
-60 5 -20 5 -46 0 -64 -6 -19 -5 -48 0 -73 5 -23 6 -55 1 -73 -11 -39 10 -134
40 -189 12 -21 24 -38 27 -38 4 0 19 -11 34 -25 15 -14 75 -49 134 -78 72 -34
119 -64 141 -89 83 -92 239 -121 353 -65 31 15 75 47 97 71 23 25 51 47 64 51
13 4 46 19 73 33 28 14 56 27 62 28 7 1 20 9 29 18 8 9 19 16 23 16 14 0 70
59 87 92 10 18 19 56 20 83 1 28 6 61 12 75 5 14 7 41 6 60 -2 19 -3 53 -3 75
2 41 2 63 1 125 0 19 -1 58 -1 85 -1 126 -15 215 -33 215 -13 0 -5 39 27 138
32 100 88 214 150 302 196 279 241 367 281 543 1 4 3 8 4 10 3 3 7 27 15 102
35 315 -66 625 -279 852 -63 68 -177 163 -195 163 -6 0 -11 3 -11 8 0 4 -33
24 -73 44 -74 38 -207 91 -207 82 0 -2 -8 0 -18 5 -10 5 -38 12 -62 16 -53 8
-75 13 -75 15 0 3 -215 6 -218 4z"/>
</g>
</svg>
